<svg width="29" height="26" viewBox="0 0 29 26" fill="none"
  xmlns="http://www.w3.org/2000/svg">
  <path d="M11.988 22.216V8.728C11.988 7.8 12.14 7.032 12.444 6.424C12.756 5.808 13.164 5.324 13.668 4.972C14.18 4.62 14.736 4.372 15.336 4.228C15.944 4.076 16.544 4 17.136 4C17.696 4 18.176 4.048 18.576 4.144C18.976 4.232 19.28 4.336 19.488 4.456V6.664C19.288 6.544 19.036 6.436 18.732 6.34C18.428 6.236 18.028 6.184 17.532 6.184C17.204 6.184 16.88 6.22 16.56 6.292C16.248 6.364 15.964 6.504 15.708 6.712C15.46 6.92 15.26 7.22 15.108 7.612C14.964 7.996 14.892 8.496 14.892 9.112V22.216H11.988ZM9 12.4V10.216H19.296V12.4H9Z" fill="#939393"/>
  <path d="M24.1671 25.02L21.9951 23.544C22.1551 23.392 22.3871 23.124 22.6911 22.74C22.9951 22.364 23.3271 21.872 23.6871 21.264C24.0551 20.656 24.4031 19.924 24.7311 19.068C25.0591 18.212 25.3311 17.24 25.5471 16.152C25.7631 15.056 25.8711 13.836 25.8711 12.492C25.8711 11.14 25.7591 9.916 25.5351 8.82C25.3191 7.724 25.0431 6.748 24.7071 5.892C24.3791 5.036 24.0311 4.304 23.6631 3.696C23.3031 3.08 22.9671 2.588 22.6551 2.22C22.3511 1.852 22.1231 1.6 21.9711 1.464L24.1431 0C24.3511 0.208 24.6431 0.524 25.0191 0.948C25.3951 1.372 25.7951 1.924 26.2191 2.604C26.6511 3.276 27.0591 4.084 27.4431 5.028C27.8351 5.972 28.1551 7.064 28.4031 8.304C28.6511 9.544 28.7751 10.94 28.7751 12.492C28.7751 14.044 28.6511 15.44 28.4031 16.68C28.1551 17.912 27.8391 19 27.4551 19.944C27.0711 20.896 26.6631 21.712 26.2311 22.392C25.8071 23.072 25.4071 23.628 25.0311 24.06C24.6631 24.492 24.3751 24.812 24.1671 25.02Z" fill="#00A3FF"/>
  <path d="M4.596 25.02C4.388 24.812 4.096 24.492 3.72 24.06C3.352 23.628 2.956 23.072 2.532 22.392C2.108 21.712 1.704 20.896 1.32 19.944C0.936 19 0.62 17.912 0.372 16.68C0.124 15.44 0 14.044 0 12.492C0 10.94 0.124 9.544 0.372 8.304C0.62 7.064 0.936 5.972 1.32 5.028C1.712 4.084 2.12 3.276 2.544 2.604C2.976 1.924 3.376 1.372 3.744 0.948C4.12 0.524 4.412 0.208 4.62 0L6.792 1.464C6.648 1.6 6.42 1.852 6.108 2.22C5.804 2.588 5.468 3.08 5.1 3.696C4.74 4.304 4.392 5.036 4.056 5.892C3.72 6.748 3.444 7.724 3.228 8.82C3.012 9.916 2.904 11.14 2.904 12.492C2.904 13.836 3.008 15.056 3.216 16.152C3.432 17.24 3.704 18.212 4.032 19.068C4.368 19.924 4.716 20.656 5.076 21.264C5.436 21.872 5.768 22.364 6.072 22.74C6.384 23.124 6.616 23.392 6.768 23.544L4.596 25.02Z" fill="#00A3FF"/>
</svg>
