<svg width="165" height="18" viewBox="0 0 165 18" fill="none"
  xmlns="http://www.w3.org/2000/svg">
  <path d="M161.271 18L159.709 16.9381C159.824 16.8288 159.991 16.636 160.209 16.3597C160.428 16.0892 160.667 15.7353 160.926 15.2978C161.191 14.8604 161.441 14.3338 161.677 13.718C161.913 13.1022 162.109 12.4029 162.264 11.6201C162.42 10.8317 162.497 9.95396 162.497 8.98705C162.497 8.01439 162.417 7.13381 162.255 6.34532C162.1 5.55683 161.902 4.85468 161.66 4.23885C161.424 3.62302 161.173 3.0964 160.909 2.65899C160.65 2.21583 160.408 1.86187 160.184 1.59712C159.965 1.33237 159.801 1.15108 159.691 1.05324L161.254 0C161.404 0.14964 161.614 0.376979 161.884 0.682014C162.155 0.98705 162.443 1.38417 162.748 1.87338C163.058 2.35683 163.352 2.93813 163.628 3.61727C163.91 4.2964 164.14 5.08201 164.319 5.9741C164.497 6.86619 164.586 7.8705 164.586 8.98705C164.586 10.1036 164.497 11.1079 164.319 12C164.14 12.8863 163.913 13.6691 163.637 14.3482C163.361 15.0331 163.067 15.6201 162.756 16.1094C162.451 16.5986 162.163 16.9986 161.893 17.3094C161.628 17.6201 161.421 17.8504 161.271 18Z" fill="#4200FF"/>
  <path d="M149.679 14.0633V5.43022H151.535L151.777 7.21727V14.0633H149.679ZM155.334 14.0633V9.22015C155.334 8.66187 155.276 8.21295 155.161 7.87339C155.052 7.52806 154.876 7.2777 154.634 7.12231C154.398 6.96691 154.096 6.88921 153.728 6.88921C153.463 6.88921 153.213 6.94101 152.977 7.04461C152.747 7.14821 152.539 7.29209 152.355 7.47626C152.171 7.65468 152.024 7.86187 151.915 8.09785C151.806 8.33382 151.739 8.58418 151.716 8.84892L151.207 8.64173C151.207 8.22734 151.273 7.81871 151.406 7.41583C151.544 7.01295 151.748 6.64749 152.019 6.31943C152.295 5.98562 152.634 5.72087 153.037 5.52518C153.44 5.3295 153.909 5.23166 154.444 5.23166C154.899 5.23166 155.308 5.3036 155.67 5.44749C156.033 5.58562 156.347 5.80144 156.611 6.09497C156.876 6.38849 157.078 6.76547 157.216 7.2259C157.36 7.68633 157.431 8.24173 157.431 8.89209V14.0633H155.334Z" fill="#1E1E1E"/>
  <path d="M144.061 14.2532C143.669 14.2532 143.269 14.2014 142.861 14.0978C142.452 14 142.055 13.8417 141.669 13.623C141.289 13.4043 140.95 13.1194 140.651 12.7683C140.351 12.4115 140.112 11.9827 139.934 11.482C139.756 10.9813 139.666 10.3971 139.666 9.7295C139.666 9.06763 139.756 8.48633 139.934 7.98561C140.112 7.48489 140.351 7.05899 140.651 6.70791C140.95 6.35683 141.289 6.07194 141.669 5.85324C142.055 5.63453 142.452 5.47626 142.861 5.37842C143.269 5.27482 143.669 5.22302 144.061 5.22302C144.452 5.22302 144.852 5.27482 145.261 5.37842C145.669 5.47626 146.064 5.63453 146.443 5.85324C146.823 6.07194 147.163 6.35683 147.462 6.70791C147.767 7.05899 148.006 7.48489 148.179 7.98561C148.357 8.48633 148.446 9.06763 148.446 9.7295C148.446 10.3971 148.357 10.9813 148.179 11.482C148.006 11.9827 147.767 12.4115 147.462 12.7683C147.163 13.1194 146.823 13.4043 146.443 13.623C146.064 13.8417 145.669 14 145.261 14.0978C144.852 14.2014 144.452 14.2532 144.061 14.2532ZM144.061 12.6906C144.325 12.6906 144.59 12.6388 144.855 12.5353C145.125 12.4259 145.37 12.259 145.589 12.0345C145.813 11.8043 145.992 11.4993 146.124 11.1194C146.256 10.7396 146.323 10.2763 146.323 9.7295C146.323 9.18849 146.256 8.73094 146.124 8.35684C145.992 7.97698 145.813 7.67194 145.589 7.44173C145.37 7.21151 145.125 7.0446 144.855 6.94101C144.59 6.83741 144.325 6.78561 144.061 6.78561C143.796 6.78561 143.528 6.83741 143.258 6.94101C142.993 7.0446 142.748 7.21151 142.524 7.44173C142.305 7.67194 142.127 7.97698 141.989 8.35684C141.856 8.73094 141.79 9.18849 141.79 9.7295C141.79 10.2763 141.856 10.7396 141.989 11.1194C142.127 11.4993 142.305 11.8043 142.524 12.0345C142.748 12.259 142.993 12.4259 143.258 12.5353C143.528 12.6388 143.796 12.6906 144.061 12.6906Z" fill="#1E1E1E"/>
  <path d="M132.182 14.0633V12.4921H134.892V7.00143H132.561V5.43021H136.982V12.4921H139.528V14.0633H132.182ZM134.849 1.77841H136.999V3.94532H134.849V1.77841Z" fill="#1E1E1E"/>
  <path d="M125.173 11.5079V2.69354H127.254V11.4561C127.254 11.8015 127.3 12.0748 127.392 12.2763C127.484 12.472 127.611 12.613 127.772 12.6993C127.933 12.7799 128.114 12.8202 128.316 12.8202C128.523 12.8202 128.713 12.7799 128.886 12.6993C129.064 12.6187 129.208 12.4777 129.317 12.2763C129.427 12.0691 129.481 11.7756 129.481 11.3957H131.147C131.147 11.9252 131.064 12.3741 130.897 12.7425C130.73 13.1051 130.5 13.3957 130.206 13.6144C129.919 13.8331 129.591 13.9914 129.222 14.0892C128.854 14.1871 128.468 14.236 128.065 14.236C127.663 14.236 127.286 14.1871 126.935 14.0892C126.583 13.9971 126.276 13.8475 126.011 13.6403C125.746 13.4274 125.539 13.1482 125.389 12.8029C125.245 12.4518 125.173 12.0202 125.173 11.5079ZM123.127 7.00146V5.43023H131.26V7.00146H123.127Z" fill="#1E1E1E"/>
  <path d="M118.554 14.2532C118.139 14.2532 117.722 14.1986 117.302 14.0892C116.888 13.9799 116.493 13.813 116.119 13.5885C115.745 13.3583 115.411 13.0647 115.118 12.7079C114.83 12.3511 114.603 11.9281 114.436 11.4388C114.269 10.9439 114.185 10.3741 114.185 9.7295C114.185 9.07914 114.269 8.50648 114.436 8.01151C114.603 7.51655 114.83 7.09353 115.118 6.74245C115.411 6.38561 115.745 6.09784 116.119 5.87914C116.493 5.65468 116.888 5.49065 117.302 5.38705C117.722 5.2777 118.139 5.22302 118.554 5.22302C119.026 5.22302 119.46 5.28058 119.857 5.39568C120.26 5.50504 120.623 5.66043 120.945 5.86187C121.273 6.05755 121.552 6.29065 121.782 6.56115C122.013 6.8259 122.191 7.11367 122.318 7.42446L120.479 8.27914C120.416 8.05468 120.306 7.82734 120.151 7.59712C119.995 7.36691 119.791 7.1741 119.538 7.01871C119.285 6.86331 118.974 6.78561 118.605 6.78561C118.335 6.78561 118.067 6.84029 117.803 6.94964C117.538 7.05899 117.296 7.23165 117.077 7.46763C116.859 7.69784 116.683 8 116.551 8.3741C116.418 8.7482 116.352 9.2 116.352 9.7295C116.352 10.2532 116.418 10.7022 116.551 11.0763C116.683 11.4446 116.859 11.7496 117.077 11.9914C117.296 12.2273 117.538 12.4029 117.803 12.518C118.067 12.6331 118.335 12.6906 118.605 12.6906C118.974 12.6906 119.285 12.6187 119.538 12.4748C119.797 12.3252 120.001 12.141 120.151 11.9223C120.306 11.7036 120.413 11.4878 120.47 11.2748L122.309 12.1381C122.182 12.4201 122.004 12.6906 121.774 12.9496C121.549 13.2029 121.276 13.4273 120.954 13.623C120.631 13.8187 120.269 13.9712 119.866 14.0806C119.469 14.1957 119.031 14.2532 118.554 14.2532Z" fill="#1E1E1E"/>
  <path d="M104.76 14.0633V5.43022H106.616L106.858 7.21727V14.0633H104.76ZM110.415 14.0633V9.22015C110.415 8.66187 110.357 8.21295 110.242 7.87339C110.133 7.52806 109.957 7.2777 109.715 7.12231C109.479 6.96691 109.177 6.88921 108.809 6.88921C108.544 6.88921 108.294 6.94101 108.058 7.04461C107.828 7.14821 107.62 7.29209 107.436 7.47626C107.252 7.65468 107.105 7.86187 106.996 8.09785C106.886 8.33382 106.82 8.58418 106.797 8.84892L106.288 8.64173C106.288 8.22734 106.354 7.81871 106.487 7.41583C106.625 7.01295 106.829 6.64749 107.099 6.31943C107.376 5.98562 107.715 5.72087 108.118 5.52518C108.521 5.3295 108.99 5.23166 109.525 5.23166C109.98 5.23166 110.389 5.3036 110.751 5.44749C111.114 5.58562 111.428 5.80144 111.692 6.09497C111.957 6.38849 112.158 6.76547 112.297 7.2259C112.44 7.68633 112.512 8.24173 112.512 8.89209V14.0633H110.415Z" fill="#1E1E1E"/>
  <path d="M97.9934 14.2619C97.5445 14.2619 97.1359 14.1928 96.7675 14.0547C96.4049 13.9108 96.0913 13.6921 95.8265 13.3986C95.5675 13.1051 95.3661 12.7281 95.2222 12.2676C95.0841 11.8015 95.015 11.2461 95.015 10.6015V5.43024H97.1042V10.2734C97.1042 10.8317 97.1589 11.2835 97.2683 11.6288C97.3834 11.9684 97.5589 12.2158 97.7949 12.3712C98.0366 12.5266 98.3416 12.6043 98.71 12.6043C98.9747 12.6043 99.2222 12.5525 99.4524 12.4489C99.6884 12.3453 99.8985 12.2043 100.083 12.0259C100.267 11.8417 100.414 11.6317 100.523 11.3957C100.632 11.1597 100.698 10.9094 100.721 10.6446L101.231 10.8518C101.231 11.2662 101.162 11.6748 101.024 12.0777C100.891 12.4806 100.687 12.8489 100.411 13.1828C100.14 13.5108 99.8035 13.7727 99.4006 13.9684C98.9978 14.1641 98.5287 14.2619 97.9934 14.2619ZM101.101 14.0633L100.678 12.1209V5.43024H102.768V12.9497L102.405 12.4921H103.769V14.0633H101.101Z" fill="#1E1E1E"/>
  <path d="M89.274 14.0633V4.35972C89.274 3.6921 89.3834 3.13958 89.6021 2.70217C89.8265 2.259 90.12 1.9108 90.4826 1.65756C90.851 1.40433 91.251 1.22591 91.6826 1.12231C92.12 1.01296 92.5517 0.958282 92.9776 0.958282C93.3805 0.958282 93.7258 0.992815 94.0136 1.06188C94.3013 1.12519 94.5201 1.20001 94.6697 1.28634V2.87483C94.5258 2.7885 94.3445 2.7108 94.1258 2.64174C93.9071 2.56692 93.6193 2.52951 93.2625 2.52951C93.0265 2.52951 92.7934 2.55541 92.5632 2.6072C92.3387 2.659 92.1344 2.75972 91.9503 2.90936C91.7718 3.059 91.628 3.27483 91.5186 3.55684C91.415 3.8331 91.3632 4.19282 91.3632 4.63598V14.0633H89.274ZM87.1244 7.00145V5.43023H94.5316V7.00145H87.1244Z" fill="#1E1E1E"/>
  <path d="M71.9406 14.0633V5.43022H73.7968L74.0385 7.21727V14.0633H71.9406ZM77.5953 14.0633V9.22015C77.5953 8.66187 77.5378 8.21295 77.4227 7.87339C77.3133 7.52806 77.1378 7.2777 76.896 7.12231C76.6601 6.96691 76.3579 6.88921 75.9896 6.88921C75.7248 6.88921 75.4745 6.94101 75.2385 7.04461C75.0083 7.14821 74.8011 7.29209 74.6169 7.47626C74.4327 7.65468 74.286 7.86187 74.1766 8.09785C74.0673 8.33382 74.0011 8.58418 73.9781 8.84892L73.4687 8.64173C73.4687 8.22734 73.5349 7.81871 73.6673 7.41583C73.8054 7.01295 74.0097 6.64749 74.2802 6.31943C74.5565 5.98562 74.896 5.72087 75.2989 5.52518C75.7018 5.3295 76.1709 5.23166 76.7061 5.23166C77.1608 5.23166 77.5694 5.3036 77.932 5.44749C78.2946 5.58562 78.6083 5.80144 78.873 6.09497C79.1378 6.38849 79.3392 6.76547 79.4773 7.2259C79.6212 7.68633 79.6932 8.24173 79.6932 8.89209V14.0633H77.5953Z" fill="#1E1E1E"/>
  <path d="M63.9464 14.0633V12.4921H66.6572V7.00143H64.3263V5.43021H68.7464V12.4921H71.2932V14.0633H63.9464ZM66.614 1.77841H68.7637V3.94532H66.614V1.77841Z" fill="#1E1E1E"/>
  <path d="M58.3886 14.2532C57.9051 14.2532 57.4591 14.1899 57.0504 14.0633C56.6418 13.9424 56.285 13.7612 55.9799 13.5194C55.6807 13.2777 55.4476 12.9813 55.2807 12.6302C55.1138 12.2734 55.0303 11.8647 55.0303 11.4043C55.0303 11.0187 55.0994 10.6763 55.2375 10.377C55.3814 10.0777 55.5742 9.82158 55.8159 9.60863C56.0576 9.38993 56.331 9.21151 56.6361 9.07338C56.9469 8.93525 57.272 8.83453 57.6116 8.77122C57.9569 8.70791 58.2994 8.67626 58.6389 8.67626C59.0361 8.67626 59.3958 8.71655 59.7181 8.79712C60.0461 8.87194 60.3224 8.96978 60.5469 9.09065C60.7771 9.20576 60.9411 9.31799 61.0389 9.42734V8.3741C61.0389 8.09784 60.9814 7.86475 60.8663 7.67482C60.7569 7.47914 60.6044 7.32086 60.4087 7.2C60.2188 7.07914 59.9972 6.99281 59.744 6.94101C59.4965 6.88345 59.2375 6.85468 58.967 6.85468C58.6792 6.85468 58.4001 6.88058 58.1296 6.93237C57.8648 6.98417 57.6174 7.05036 57.3871 7.13094C57.1569 7.21151 56.9469 7.29784 56.7569 7.38993C56.5728 7.48201 56.4202 7.5741 56.2994 7.66619L55.3929 6.12086C55.6001 5.97698 55.8907 5.83885 56.2648 5.70647C56.6447 5.56835 57.0763 5.45324 57.5598 5.36115C58.0433 5.26907 58.5526 5.22302 59.0879 5.22302C59.462 5.22302 59.8389 5.2518 60.2188 5.30935C60.5987 5.36691 60.9612 5.46187 61.3066 5.59424C61.6519 5.72662 61.9598 5.90504 62.2303 6.1295C62.5066 6.3482 62.7224 6.62158 62.8778 6.94964C63.0389 7.27194 63.1195 7.66043 63.1195 8.11511V12.4921H64.3368V14.0633H61.462L61.2375 12.9755C61.1397 13.1597 60.967 13.3525 60.7195 13.554C60.472 13.7496 60.1526 13.9165 59.7612 14.0547C59.3756 14.1871 58.9181 14.2532 58.3886 14.2532ZM58.9584 12.6906C59.3325 12.6906 59.6605 12.636 59.9425 12.5266C60.2246 12.4115 60.4576 12.2734 60.6418 12.1122C60.826 11.9511 60.9584 11.8043 61.0389 11.6719V10.7914C60.9526 10.659 60.803 10.5324 60.59 10.4115C60.3771 10.2849 60.1325 10.1813 59.8562 10.1007C59.5857 10.0144 59.3066 9.97122 59.0188 9.97122C58.7022 9.97122 58.3943 10.0144 58.0951 10.1007C57.7958 10.1871 57.5512 10.3281 57.3612 10.5237C57.1713 10.7194 57.0763 10.9813 57.0763 11.3094C57.0763 11.6374 57.154 11.9022 57.3094 12.1036C57.4706 12.305 57.6922 12.4547 57.9742 12.5525C58.262 12.6446 58.59 12.6906 58.9584 12.6906Z" fill="#1E1E1E"/>
  <path d="M52.4299 14.0633V8.86619C52.4299 8.20432 52.3147 7.70936 52.0845 7.3813C51.8601 7.05324 51.4831 6.88921 50.9536 6.88921C50.6198 6.88921 50.3147 6.9813 50.0385 7.16547C49.7622 7.34964 49.5378 7.58562 49.3651 7.87339C49.1924 8.1554 49.0975 8.44892 49.0802 8.75396L48.3723 8.57267C48.3781 8.15252 48.4673 7.74389 48.6399 7.34677C48.8126 6.94964 49.0543 6.59281 49.3651 6.27626C49.6759 5.95396 50.0356 5.70072 50.4442 5.51655C50.8529 5.32662 51.2932 5.23166 51.7651 5.23166C52.3809 5.23166 52.8903 5.35252 53.2932 5.59425C53.7018 5.83597 54.0068 6.21008 54.2083 6.71655C54.4155 7.21727 54.5191 7.86187 54.5191 8.65036V14.0633H52.4299ZM41.5953 14.0633V5.43022H43.486L43.6845 7.15684V14.0633H41.5953ZM47.0083 14.0633V8.86619C47.0083 8.20432 46.8932 7.70936 46.6629 7.3813C46.4327 7.05324 46.0558 6.88921 45.532 6.88921C45.1982 6.88921 44.8932 6.9813 44.6169 7.16547C44.3406 7.34964 44.1162 7.58562 43.9435 7.87339C43.7766 8.1554 43.6874 8.44892 43.6759 8.75396L42.968 8.57267C42.968 8.15252 43.0543 7.74389 43.227 7.34677C43.4054 6.94964 43.65 6.59281 43.9608 6.27626C44.2716 5.95396 44.6313 5.70072 45.0399 5.51655C45.4486 5.32662 45.8831 5.23166 46.3435 5.23166C47.2644 5.23166 47.9522 5.49641 48.4068 6.0259C48.8673 6.54964 49.0975 7.34389 49.0975 8.40864V14.0633H47.0083Z" fill="#1E1E1E"/>
  <path d="M30.0461 14.2532C29.4936 14.2532 28.9555 14.1612 28.4317 13.977C27.908 13.7928 27.4361 13.5137 27.0159 13.1396C26.6015 12.7655 26.2706 12.2964 26.0231 11.7324C25.7756 11.1626 25.6519 10.495 25.6519 9.7295C25.6519 8.96403 25.7756 8.29928 26.0231 7.73525C26.2706 7.17122 26.6044 6.70216 27.0246 6.32806C27.4447 5.95396 27.9166 5.6777 28.4404 5.49928C28.9699 5.31511 29.5138 5.22302 30.072 5.22302C30.6476 5.22302 31.1972 5.30935 31.721 5.48202C32.2447 5.65468 32.7109 5.91367 33.1195 6.25899C33.5282 6.60432 33.8476 7.03885 34.0778 7.56259C34.3138 8.08633 34.4317 8.6964 34.4317 9.39281C34.4317 9.50791 34.426 9.63741 34.4145 9.7813C34.403 9.92518 34.3886 10.0489 34.3713 10.1525H27.3181V8.86619H32.2562C32.2562 8.84317 32.2562 8.8259 32.2562 8.81439C32.2562 8.80288 32.2562 8.78273 32.2562 8.75396C32.2562 8.36259 32.1584 8.02014 31.9627 7.72662C31.7728 7.42734 31.5166 7.19425 31.1943 7.02734C30.872 6.86043 30.5094 6.77698 30.1066 6.77698C29.8246 6.77698 29.5425 6.83453 29.2605 6.94964C28.9843 7.05899 28.7339 7.23165 28.5094 7.46763C28.2907 7.69784 28.1152 8 27.9828 8.3741C27.8505 8.74245 27.7843 9.18849 27.7843 9.71223C27.7843 10.3568 27.8907 10.9007 28.1037 11.3439C28.3224 11.7871 28.6102 12.1237 28.967 12.354C29.3296 12.5784 29.7267 12.6906 30.1584 12.6906C30.5555 12.6906 30.8922 12.6245 31.1684 12.4921C31.4505 12.3597 31.6749 12.2014 31.8418 12.0173C32.0145 11.8331 32.1353 11.6547 32.2044 11.482L34.0951 12.4058C33.9512 12.6647 33.7555 12.9065 33.508 13.1309C33.2663 13.3496 32.9756 13.5453 32.6361 13.718C32.2965 13.8849 31.9109 14.0144 31.4792 14.1065C31.0476 14.2043 30.5699 14.2532 30.0461 14.2532Z" fill="#1E1E1E"/>
  <path d="M16.7444 14.0633V1.11368H18.8336V14.0633H16.7444ZM22.3991 14.0633V9.22015C22.3991 8.66188 22.3416 8.21296 22.2264 7.87339C22.1171 7.52807 21.9416 7.27771 21.6998 7.12231C21.4639 6.96692 21.1617 6.88922 20.7934 6.88922C20.5286 6.88922 20.2782 6.94102 20.0423 7.04461C19.8121 7.14821 19.6049 7.2921 19.4207 7.47627C19.2365 7.65469 19.0898 7.86188 18.9804 8.09785C18.871 8.33382 18.8049 8.58418 18.7818 8.84893L18.2725 8.64174C18.2725 8.22735 18.3387 7.81871 18.471 7.41584C18.6092 7.01296 18.8135 6.64749 19.084 6.31943C19.3603 5.98562 19.6998 5.72087 20.1027 5.52519C20.5056 5.32951 20.9746 5.23166 21.5099 5.23166C21.9646 5.23166 22.3732 5.30361 22.7358 5.44749C23.0984 5.58562 23.4092 5.80145 23.6682 6.09497C23.9329 6.3885 24.1344 6.76548 24.2725 7.22591C24.4164 7.68634 24.4883 8.24174 24.4883 8.8921V14.0633H22.3991Z" fill="#1E1E1E"/>
  <path d="M8.5794 11.5079V2.69354H10.66V11.4561C10.66 11.8015 10.706 12.0748 10.7981 12.2763C10.8902 12.472 11.0168 12.613 11.178 12.6993C11.3391 12.7799 11.5204 12.8202 11.7218 12.8202C11.929 12.8202 12.119 12.7799 12.2916 12.6993C12.47 12.6187 12.6139 12.4777 12.7233 12.2763C12.8326 12.0691 12.8873 11.7756 12.8873 11.3957H14.5535C14.5535 11.9252 14.47 12.3741 14.3031 12.7425C14.1362 13.1051 13.906 13.3957 13.6125 13.6144C13.3247 13.8331 12.9967 13.9914 12.6283 14.0892C12.26 14.1871 11.8744 14.236 11.4715 14.236C11.0686 14.236 10.6916 14.1871 10.3405 14.0892C9.98947 13.9971 9.68156 13.8475 9.41681 13.6403C9.15206 13.4274 8.94487 13.1482 8.79523 12.8029C8.65134 12.4518 8.5794 12.0202 8.5794 11.5079ZM6.53336 7.00146V5.43023H14.6657V7.00146H6.53336Z" fill="#1E1E1E"/>
  <path d="M3.30647 18C3.15683 17.8504 2.94676 17.6201 2.67626 17.3094C2.41151 16.9986 2.12662 16.5986 1.82158 16.1094C1.51655 15.6201 1.2259 15.0331 0.94964 14.3482C0.673381 13.6691 0.446043 12.8863 0.267626 12C0.0892087 11.1079 0 10.1036 0 8.98705C0 7.8705 0.0892087 6.86619 0.267626 5.9741C0.446043 5.08201 0.673381 4.2964 0.94964 3.61727C1.23165 2.93813 1.52518 2.35683 1.83022 1.87338C2.14101 1.38417 2.42878 0.98705 2.69352 0.682014C2.96403 0.376979 3.1741 0.14964 3.32374 0L4.88633 1.05324C4.78273 1.15108 4.6187 1.33237 4.39424 1.59712C4.17554 1.86187 3.93381 2.21583 3.66906 2.65899C3.41007 3.0964 3.15971 3.62302 2.91799 4.23885C2.67626 4.85468 2.4777 5.55683 2.3223 6.34532C2.16691 7.13381 2.08921 8.01439 2.08921 8.98705C2.08921 9.95396 2.16403 10.8317 2.31367 11.6201C2.46906 12.4029 2.66475 13.1022 2.90072 13.718C3.14245 14.3338 3.39281 14.8604 3.6518 15.2978C3.91079 15.7353 4.14964 16.0892 4.36835 16.3597C4.59281 16.636 4.75971 16.8288 4.86906 16.9381L3.30647 18Z" fill="#4200FF"/>
</svg>
